<svg viewBox="0 0 200 200" xmlns="http://www.w3.org/2000/svg">
  <!-- Trench coat collar -->
  <path d="M60 160 L60 180 L80 190 L120 190 L140 180 L140 160 Z" fill="#2d2d2d"/>

  <!-- Bear head -->
  <ellipse cx="100" cy="100" rx="50" ry="52" fill="#6b4423"/>

  <!-- Bear ears -->
  <ellipse cx="65" cy="60" rx="20" ry="22" fill="#6b4423"/>
  <ellipse cx="135" cy="60" rx="20" ry="22" fill="#6b4423"/>
  <ellipse cx="65" cy="62" rx="13" ry="14" fill="#8b5a3c"/>
  <ellipse cx="135" cy="62" rx="13" ry="14" fill="#8b5a3c"/>

  <!-- Bear snout -->
  <ellipse cx="100" cy="115" rx="28" ry="25" fill="#8b5a3c"/>

  <!-- Fedora hat -->
  <ellipse cx="100" cy="58" rx="55" ry="12" fill="#1a1a1a"/>
  <rect x="65" y="42" width="70" height="16" rx="5" fill="#1a1a1a"/>
  <rect x="70" y="36" width="60" height="22" rx="3" fill="#2d2d2d"/>

  <!-- Sunglasses -->
  <rect x="68" y="85" width="27" height="16" rx="3" fill="#0a0a0a" opacity="0.9"/>
  <rect x="105" y="85" width="27" height="16" rx="3" fill="#0a0a0a" opacity="0.9"/>
  <line x1="95" y1="93" x2="105" y2="93" stroke="#1a1a1a" stroke-width="2.5"/>

  <!-- Nose -->
  <ellipse cx="100" cy="122" rx="6" ry="7" fill="#1a1a1a"/>

  <!-- Mouth hint -->
  <path d="M100 122 L100 130" stroke="#1a1a1a" stroke-width="2"/>
  <path d="M88 130 Q100 138 112 130" fill="none" stroke="#1a1a1a" stroke-width="2"/>
</svg>
