<svg viewBox="0 0 200 200" xmlns="http://www.w3.org/2000/svg">
  <!-- Trench coat collar -->
  <path d="M60 160 L60 180 L80 190 L120 190 L140 180 L140 160 Z" fill="#2d2d2d"/>

  <!-- Cat head -->
  <ellipse cx="100" cy="100" rx="45" ry="48" fill="#1a1a1a"/>

  <!-- Cat ears -->
  <path d="M65 65 L55 30 L75 55 Z" fill="#1a1a1a"/>
  <path d="M135 65 L145 30 L125 55 Z" fill="#1a1a1a"/>
  <path d="M68 60 L62 38 L75 58 Z" fill="#2d2d2d"/>
  <path d="M132 60 L138 38 L125 58 Z" fill="#2d2d2d"/>

  <!-- Cat face details -->
  <path d="M75 115 Q100 125 125 115" fill="none" stroke="#444" stroke-width="2"/>

  <!-- Fedora hat -->
  <ellipse cx="100" cy="60" rx="52" ry="10" fill="#2d2d2d"/>
  <rect x="68" y="45" width="64" height="15" rx="5" fill="#2d2d2d"/>
  <rect x="73" y="40" width="54" height="20" rx="3" fill="#3d3d3d"/>
  <rect x="75" y="42" width="50" height="3" fill="#666"/>

  <!-- Sunglasses -->
  <rect x="70" y="85" width="25" height="15" rx="3" fill="#0a0a0a" opacity="0.95"/>
  <rect x="105" y="85" width="25" height="15" rx="3" fill="#0a0a0a" opacity="0.95"/>
  <line x1="95" y1="92" x2="105" y2="92" stroke="#1a1a1a" stroke-width="2"/>
  <line x1="68" y1="92" x2="60" y2="92" stroke="#1a1a1a" stroke-width="2"/>
  <line x1="132" y1="92" x2="140" y2="92" stroke="#1a1a1a" stroke-width="2"/>

  <!-- Whiskers hint -->
  <line x1="60" y1="100" x2="70" y2="98" stroke="#444" stroke-width="1"/>
  <line x1="140" y1="100" x2="130" y2="98" stroke="#444" stroke-width="1"/>

  <!-- Nose -->
  <path d="M100 110 L95 115 L100 117 L105 115 Z" fill="#e63946"/>
</svg>
