<svg viewBox="0 0 200 200" xmlns="http://www.w3.org/2000/svg">
  <!-- Trench coat collar -->
  <path d="M60 160 L60 180 L80 190 L120 190 L140 180 L140 160 Z" fill="#2d2d2d"/>

  <!-- Fox head -->
  <ellipse cx="100" cy="100" rx="45" ry="50" fill="#d97642"/>

  <!-- Fox ears -->
  <path d="M70 70 L60 40 L80 60 Z" fill="#d97642"/>
  <path d="M130 70 L140 40 L120 60 Z" fill="#d97642"/>
  <path d="M70 65 L65 45 L78 62 Z" fill="#f4a460"/>
  <path d="M130 65 L135 45 L122 62 Z" fill="#f4a460"/>

  <!-- Fox snout -->
  <ellipse cx="100" cy="115" rx="25" ry="20" fill="#f4a460"/>
  <path d="M85 110 Q100 95 115 110" fill="#f4a460"/>

  <!-- Fedora hat -->
  <ellipse cx="100" cy="65" rx="50" ry="10" fill="#1a1a1a"/>
  <rect x="70" y="50" width="60" height="15" rx="5" fill="#1a1a1a"/>
  <rect x="75" y="45" width="50" height="20" rx="3" fill="#2d2d2d"/>

  <!-- Sunglasses -->
  <rect x="70" y="85" width="25" height="15" rx="3" fill="#0a0a0a" opacity="0.9"/>
  <rect x="105" y="85" width="25" height="15" rx="3" fill="#0a0a0a" opacity="0.9"/>
  <line x1="95" y1="92" x2="105" y2="92" stroke="#1a1a1a" stroke-width="2"/>

  <!-- Nose -->
  <ellipse cx="100" cy="120" rx="4" ry="5" fill="#1a1a1a"/>
</svg>
