<svg viewBox="0 0 200 200" xmlns="http://www.w3.org/2000/svg">
  <!-- Trench coat collar -->
  <path d="M60 160 L60 180 L80 190 L120 190 L140 180 L140 160 Z" fill="#2d2d2d"/>

  <!-- Owl body/head -->
  <ellipse cx="100" cy="105" rx="50" ry="55" fill="#8b6f47"/>

  <!-- Owl ear tufts -->
  <path d="M60 60 L55 40 L65 55 Z" fill="#6b5435"/>
  <path d="M140 60 L145 40 L135 55 Z" fill="#6b5435"/>

  <!-- Owl face disk -->
  <ellipse cx="100" cy="95" rx="42" ry="45" fill="#a0826d"/>
  <ellipse cx="100" cy="95" rx="38" ry="40" fill="#b89968"/>

  <!-- Fedora hat -->
  <ellipse cx="100" cy="58" rx="54" ry="10" fill="#1a1a1a"/>
  <rect x="66" y="43" width="68" height="15" rx="5" fill="#1a1a1a"/>
  <rect x="71" y="38" width="58" height="20" rx="3" fill="#2d2d2d"/>
  <rect x="73" y="40" width="54" height="3" fill="#8b4513"/>

  <!-- Sunglasses (over wise eyes) -->
  <ellipse cx="82" cy="90" rx="15" ry="18" fill="#f0e68c" opacity="0.3"/>
  <ellipse cx="118" cy="90" rx="15" ry="18" fill="#f0e68c" opacity="0.3"/>
  <rect x="67" y="82" width="28" height="18" rx="4" fill="#0a0a0a" opacity="0.9"/>
  <rect x="105" y="82" width="28" height="18" rx="4" fill="#0a0a0a" opacity="0.9"/>
  <line x1="95" y1="91" x2="105" y2="91" stroke="#1a1a1a" stroke-width="2"/>

  <!-- Beak -->
  <path d="M100 110 L92 120 L100 125 L108 120 Z" fill="#d4a574"/>
</svg>
