<svg viewBox="0 0 200 200" xmlns="http://www.w3.org/2000/svg">
  <!-- Trench coat collar -->
  <path d="M60 160 L60 180 L80 190 L120 190 L140 180 L140 160 Z" fill="#2d2d2d"/>

  <!-- Wolf head -->
  <ellipse cx="100" cy="100" rx="46" ry="50" fill="#6e7074"/>

  <!-- Wolf ears -->
  <path d="M68 70 L58 35 L78 60 Z" fill="#6e7074"/>
  <path d="M132 70 L142 35 L122 60 Z" fill="#6e7074"/>
  <path d="M70 68 L63 42 L77 62 Z" fill="#8b8d91"/>
  <path d="M130 68 L137 42 L123 62 Z" fill="#8b8d91"/>

  <!-- Wolf snout -->
  <ellipse cx="100" cy="115" rx="28" ry="22" fill="#8b8d91"/>
  <path d="M82 108 Q100 98 118 108" fill="#8b8d91"/>

  <!-- Fur detail -->
  <path d="M75 95 L70 85 L75 90" fill="#5a5c5f" opacity="0.5"/>
  <path d="M125 95 L130 85 L125 90" fill="#5a5c5f" opacity="0.5"/>

  <!-- Fedora hat -->
  <ellipse cx="100" cy="62" rx="52" ry="11" fill="#1a1a1a"/>
  <rect x="68" y="46" width="64" height="16" rx="5" fill="#1a1a1a"/>
  <rect x="73" y="40" width="54" height="22" rx="3" fill="#2d2d2d"/>
  <rect x="75" y="42" width="50" height="3" fill="#4a4a4a"/>

  <!-- Sunglasses -->
  <rect x="70" y="85" width="26" height="15" rx="3" fill="#0a0a0a" opacity="0.95"/>
  <rect x="104" y="85" width="26" height="15" rx="3" fill="#0a0a0a" opacity="0.95"/>
  <line x1="96" y1="92" x2="104" y2="92" stroke="#1a1a1a" stroke-width="2"/>
  <line x1="68" y1="92" x2="60" y2="92" stroke="#1a1a1a" stroke-width="2"/>
  <line x1="132" y1="92" x2="140" y2="92" stroke="#1a1a1a" stroke-width="2"/>

  <!-- Nose -->
  <ellipse cx="100" cy="122" rx="5" ry="6" fill="#1a1a1a"/>

  <!-- Teeth hint (intimidating) -->
  <line x1="95" y1="128" x2="95" y2="132" stroke="#fff" stroke-width="2"/>
  <line x1="105" y1="128" x2="105" y2="132" stroke="#fff" stroke-width="2"/>
</svg>
